<svg width="108" height="52" viewBox="0 0 108 52" fill="none" xmlns="http://www.w3.org/2000/svg">
<path d="M107.029 40.5357C105.61 40.2031 104.672 39.7492 104.207 39.1713C103.745 38.596 103.161 37.1235 102.463 34.7591L101.967 33.1731L98.7841 22.5461L92.3066 0.904417C92.1413 0.339695 91.9449 0.0546875 91.7056 0.0546875C91.4697 0.0546875 91.2553 0.347608 91.0633 0.936088L83.6154 22.5461H85.4855C85.5088 22.3483 85.6035 22.0157 85.774 21.5513L90.1454 8.90029C90.2798 8.50981 90.4003 8.32507 90.5045 8.34617C90.7146 8.3646 90.9117 8.68658 91.09 9.30669L91.2682 9.92161L94.7898 21.4906L94.9026 22.0157C94.9551 22.2348 94.9896 22.4142 95.0051 22.5461H96.7228L95.0051 22.5488C95.0128 22.6016 95.0154 22.649 95.0154 22.6887C95.0154 23.1769 94.6408 23.4196 93.8935 23.4196H87.1163L86.5136 23.3906C85.8239 23.3906 85.4804 23.1347 85.4804 22.6306C85.4804 22.6042 85.4803 22.5752 85.4855 22.5461H83.6154L79.5376 34.3817L78.8875 36.316C78.5569 37.2159 78.1375 38.0814 77.6313 38.9127C77.1224 39.7414 76.7185 40.2164 76.4198 40.3324L75.5906 40.657C75.3495 40.7521 75.2212 40.9526 75.2109 41.2534C75.2083 41.2692 75.2083 41.2851 75.2083 41.3036C75.2083 41.673 75.4098 41.8577 75.8136 41.8577C75.8877 41.8577 76.3044 41.7944 77.0621 41.6651C77.3006 41.6334 77.6364 41.6176 78.0695 41.6176C79.0054 41.6176 79.8337 41.636 80.5475 41.6783L82.695 41.826C83.0385 41.8471 83.2882 41.8577 83.4527 41.8577C83.8858 41.8577 84.0932 41.6915 84.0795 41.359C84.0769 41.3247 84.0717 41.2878 84.0666 41.2534C84.0166 40.9605 83.7859 40.7599 83.3795 40.657C82.3462 40.3641 81.6514 40.0131 81.2975 39.6014C80.9462 39.1924 80.7706 38.53 80.7706 37.617C80.7706 36.6591 81.1037 35.1998 81.7745 33.2285L83.2615 28.9324C83.7075 27.6076 84.0666 26.8265 84.3369 26.5942C84.6073 26.3594 85.2944 26.2407 86.4008 26.2407H94.5203C95.3589 26.2407 95.8652 26.3251 96.046 26.4913C96.2268 26.6576 96.474 27.2777 96.7882 28.3518L97.9136 32.2178C98.8315 35.3053 99.2904 37.3637 99.2904 38.3982C99.2904 39.5303 98.915 40.1953 98.1624 40.3905L97.465 40.5937C97.0896 40.6966 96.901 40.9077 96.901 41.227V41.2534C96.9113 41.6572 97.106 41.8577 97.4831 41.8577C97.6329 41.8577 97.8637 41.8155 98.1779 41.7364C98.6997 41.6176 100.001 41.5569 102.075 41.5569C104.063 41.5569 105.445 41.5991 106.222 41.6862C106.654 41.7178 106.94 41.7364 107.073 41.7364C107.474 41.7364 107.682 41.578 107.7 41.2561V41.2508C107.716 40.8892 107.493 40.6517 107.029 40.5357Z" fill="black"/>
<path d="M67.0001 40.7751C63.7876 40.7751 60.8877 39.2418 58.2909 36.1728C55.3832 32.7106 53.6938 28.169 53.2272 22.5454C53.1385 21.4714 53.0937 20.3551 53.0937 19.1993C53.0937 14.2328 54.114 10.2032 56.1512 7.1051C58.1944 4.00707 60.8481 2.458 64.1183 2.458C67.9895 2.458 71.2777 4.58229 73.9865 8.83362C76.4258 12.6653 77.7656 17.2333 78.0067 22.5454C78.0334 23.1312 78.0489 23.725 78.0489 24.3293C78.0489 29.2351 77.0311 33.2014 74.9991 36.2308C72.9636 39.2603 70.2996 40.7751 67.0001 40.7751ZM79.2233 32.3041C80.4615 29.3353 81.1357 26.0842 81.2484 22.548C81.2614 22.1945 81.2639 21.8382 81.2639 21.4819C81.2639 15.3412 79.795 10.3458 76.8581 6.49555C73.9211 2.64273 70.1188 0.716321 65.4529 0.716321C60.1903 0.716321 56.1116 3.02277 53.2091 7.63821C50.7724 11.5332 49.5557 16.2569 49.5557 21.8092C49.5557 22.0572 49.5583 22.3027 49.5635 22.5454C49.7133 29.177 51.9261 34.6554 56.1986 38.9727C55.5898 39.2973 55.0318 39.8408 54.5178 40.5982L53.7515 40.3898C52.2887 39.9992 50.9351 38.9516 49.6918 37.2469L38.9479 22.5454H30.5296V33.8453C30.5296 36.3048 30.3437 38.0543 29.9769 39.094C29.8951 39.321 29.8003 39.5242 29.6935 39.709C29.4335 39.5426 29.226 39.3659 29.0693 39.1733C28.6052 38.5953 28.0258 37.1227 27.3223 34.7583L26.8298 33.1723L23.6483 22.5454L17.1682 0.906323C17.0055 0.338954 16.804 0.0539551 16.5707 0.0539551C16.3347 0.0539551 16.1195 0.349514 15.9249 0.935348L8.48045 22.5454H10.3471C10.3712 22.3502 10.4651 22.0176 10.6356 21.5505L15.0105 8.89961C15.1439 8.50904 15.2619 8.3243 15.3695 8.34541C15.5762 8.36391 15.7708 8.68582 15.949 9.30601L16.1324 9.92352L19.6514 21.4899L19.7642 22.0176C19.8167 22.2367 19.8512 22.4135 19.8667 22.5454H21.587L19.8667 22.548C19.8718 22.6008 19.877 22.6484 19.877 22.6879C19.877 23.1761 19.505 23.4189 18.7551 23.4189H11.9814L11.3752 23.3899C10.6855 23.3899 10.342 23.1339 10.342 22.6299C10.342 22.6035 10.3446 22.5771 10.3471 22.5454H8.48045L4.39919 34.381L3.74911 36.3179C3.41848 37.2151 3.00171 38.0807 2.49026 38.912C1.98398 39.7406 1.58016 40.2156 1.28138 40.3317L0.453098 40.6563C0.211149 40.7513 0.0828421 40.9518 0.0725098 41.2553V41.3028C0.0725098 41.6723 0.271397 41.857 0.67608 41.857C0.749267 41.857 1.16603 41.7937 1.92631 41.6643C2.16224 41.6327 2.49803 41.6168 2.93113 41.6168C3.86965 41.6168 4.69622 41.6354 5.41173 41.6776L7.554 41.8254C7.89755 41.8465 8.15239 41.857 8.31512 41.857C8.74736 41.857 8.95484 41.6908 8.93935 41.3582C8.93935 41.3239 8.93418 41.287 8.92815 41.2553C8.87649 40.9598 8.64836 40.7592 8.24454 40.6563C7.20528 40.3634 6.51559 40.0124 6.16171 39.6034C5.80783 39.1917 5.63214 38.5294 5.63214 37.6162C5.63214 36.6583 5.96795 35.199 6.63611 33.2304L8.12309 28.9316C8.57169 27.6069 8.92817 26.8258 9.19854 26.5935C9.4689 26.3586 10.156 26.2399 11.2624 26.2399H19.3845C20.2206 26.2399 20.7268 26.3244 20.9076 26.4906C21.0859 26.6568 21.3356 27.277 21.6473 28.351L22.7778 32.2171C23.6931 35.3045 24.152 37.3629 24.152 38.4001C24.152 39.5295 23.7766 40.1945 23.0241 40.3898L22.3266 40.5956C21.9495 40.6959 21.7626 40.907 21.7626 41.2263V41.2553C21.773 41.6565 21.965 41.857 22.3447 41.857C22.4945 41.857 22.7253 41.8174 23.0404 41.7356C23.5648 41.6168 24.8623 41.5561 26.94 41.5561C28.0145 41.5561 28.9927 41.543 29.79 41.5456C30.3755 41.572 36.2994 41.8174 36.7712 41.886C37.3688 41.9625 37.776 42.0127 37.9878 42.0391C38.3606 42.0549 38.5415 41.8676 38.5286 41.4664C38.5234 41.3899 38.507 41.3186 38.4812 41.2553C38.3916 41.0495 38.185 40.9122 37.8544 40.8357C36.1969 40.4847 35.1353 39.9464 34.6703 39.2233C34.2088 38.5003 33.9755 37.0146 33.9755 34.7663V24.0311C33.9755 23.5825 34.1149 23.3556 34.3905 23.3556C34.5739 23.3556 34.7572 23.4638 34.9406 23.6802L35.3893 24.3267L47.429 40.5429L47.8122 41.0917C47.8509 41.1497 47.8957 41.2052 47.9404 41.2553H71.2175C72.088 40.8516 72.8956 40.3845 73.6404 39.8408C76.0031 38.0807 77.8655 35.5685 79.2233 32.3041Z" fill="black"/>
<path d="M37.4695 20.0273C37.485 19.7898 37.6555 19.4784 37.9836 19.0852L45.6484 9.9915C49.4671 5.50008 52.0501 3.03003 53.3951 2.57879C54.1295 2.34921 54.4886 2.08004 54.4731 1.77129C54.4447 1.38864 54.2268 1.196 53.8204 1.196C53.6998 1.196 53.4717 1.23823 53.1256 1.31739C52.8234 1.37808 52.2025 1.40712 51.258 1.40712L49.5721 1.43614L47.503 1.35698C46.7238 1.35698 46.0212 1.32267 45.3918 1.25142C45.1214 1.21448 44.92 1.196 44.7831 1.196C44.319 1.196 44.0856 1.39392 44.0856 1.78712C44.0856 2.14337 44.4266 2.38615 45.1059 2.5181C46.184 2.77411 46.7212 3.35202 46.7212 4.24923C46.7212 5.28897 45.9816 6.66644 44.5024 8.39236L34.8726 19.6974L34.5368 20.0511L34.1778 20.373C34.0417 20.373 33.9763 20.1672 33.9763 19.7529V8.24188C33.9763 6.23366 34.102 4.89312 34.3508 4.21489C34.5979 3.53407 35.1981 2.92979 36.1452 2.39671C36.5069 2.21199 36.6877 1.98768 36.6877 1.72643C36.6877 1.35433 36.5095 1.17489 36.1478 1.196C36.0264 1.196 35.6648 1.24878 35.0647 1.34642C34.7366 1.37281 34.3457 1.38601 33.8945 1.38601L32.206 1.45989L31.3717 1.49948C29.7358 1.49948 28.5346 1.43087 27.7657 1.29629C27.4515 1.23031 27.1811 1.196 26.9555 1.196C26.5517 1.196 26.3476 1.39656 26.3476 1.79767C26.3476 2.08268 26.5413 2.28323 26.9322 2.39671L28.0335 2.69489C29.0065 2.96672 29.6677 3.52352 30.0113 4.35742C30.3574 5.1966 30.5305 6.66644 30.5305 8.7697V22.5448H38.9453L38.0068 21.2623C37.634 20.7319 37.4531 20.3202 37.4695 20.0273Z" fill="black"/>
<path d="M82.3764 48.1327C82.2274 48.1511 82.0173 48.2567 81.7495 48.4466C80.8239 49.0985 79.733 49.4231 78.4794 49.4231C77.6562 49.4231 76.5885 48.8688 75.272 47.7632L73.9116 46.602L73.5732 46.3118L71.4878 44.5015C70.8877 44.0265 69.8363 43.2849 68.3278 42.2768C69.3585 42.0104 70.3212 41.67 71.2183 41.2556L47.9413 41.2583C48.2848 41.6567 48.6783 41.8573 49.1287 41.8573C49.368 41.8573 49.7116 41.8362 50.1568 41.7966C50.558 41.757 51.2089 41.7359 52.1026 41.7359C52.9215 41.7359 53.4958 41.7517 53.8368 41.786L53.773 41.9153C53.073 43.3826 52.6933 44.8736 52.6331 46.3831C52.6305 46.4596 52.627 46.536 52.6331 46.602C52.6537 47.0824 52.8371 47.3199 53.1858 47.3199C53.4114 47.3199 53.5767 47.085 53.6792 46.602H53.6818C53.6999 46.4991 53.7179 46.3883 53.7369 46.2616C53.9022 44.8894 54.3637 43.7204 55.124 42.7598C55.8843 41.7993 56.7238 41.3163 57.6313 41.3163C58.6775 41.3163 60.322 42.0895 62.559 43.6359L66.3217 46.2485C66.4216 46.3197 66.5817 46.4358 66.8021 46.602C67.4341 47.0717 68.556 47.9216 70.1739 49.1565C72.6054 51.017 74.7193 51.9459 76.5128 51.9459C77.8422 51.9459 79.2241 51.5606 80.6664 50.7848C82.1043 50.0115 82.8121 49.27 82.7802 48.5628C82.7647 48.2567 82.6338 48.1115 82.3764 48.1327Z" fill="black"/>
</svg>
