<svg width="143" height="90" viewBox="0 0 143 90" fill="none" xmlns="http://www.w3.org/2000/svg">
<g clip-path="url(#clip0_1_1212)">
<path d="M84.7407 0.882324H5.2963C2.85874 0.882324 0.882717 2.85754 0.882717 5.29409V84.7058C0.882717 87.1424 2.85874 89.1176 5.2963 89.1176H84.7407C87.1783 89.1176 89.1543 87.1424 89.1543 84.7058V5.29409C89.1543 2.85754 87.1783 0.882324 84.7407 0.882324Z" stroke="white" stroke-width="2"/>
<path d="M112.988 7.05859H95.3333C93.3833 7.05859 91.8025 8.63877 91.8025 10.588V79.4115C91.8025 81.3608 93.3833 82.9409 95.3333 82.9409H112.988C114.938 82.9409 116.519 81.3608 116.519 79.4115V10.588C116.519 8.63877 114.938 7.05859 112.988 7.05859Z" fill="white"/>
<path d="M139.469 15H121.815C119.865 15 118.284 16.5802 118.284 18.5294V71.4706C118.284 73.4198 119.865 75 121.815 75H139.469C141.419 75 143 73.4198 143 71.4706V18.5294C143 16.5802 141.419 15 139.469 15Z" fill="white"/>
</g>
<defs>
<clipPath id="clip0_1_1212">
<rect width="143" height="90" fill="white"/>
</clipPath>
</defs>
</svg>
