<svg width="90" height="90" viewBox="0 0 90 90" fill="none" xmlns="http://www.w3.org/2000/svg">
<g clip-path="url(#clip0_1_1220)">
<path fill-rule="evenodd" clip-rule="evenodd" d="M69.7967 50.1092C81.3273 47.7459 90 37.542 90 25.3125C90 11.3328 78.6672 0 64.6875 0C52.458 0 42.2541 8.67276 39.8908 20.2033C29.9497 22.2409 22.1328 30.1064 20.1666 40.0734C20.1787 40.0124 20.1909 39.9515 20.2033 39.8907C8.67276 42.254 0 52.4578 0 64.6873C0 78.6671 11.3328 90 25.3125 90C37.5419 90 47.7458 81.3272 50.1091 69.7967C59.9895 67.7716 67.7716 59.9896 69.7967 50.1092ZM68.2015 50.3831C65.7616 60.9416 56.3 68.8125 45 68.8125C31.8487 68.8125 21.1875 58.1513 21.1875 45C21.1875 33.7 29.0584 24.2384 39.6169 21.7985C39.4574 22.947 39.375 24.1201 39.375 25.3125C39.375 39.2922 50.7078 50.625 64.6875 50.625C65.8799 50.625 67.053 50.5426 68.2015 50.3831ZM45 70.3125C46.0954 70.3125 47.1746 70.2429 48.2334 70.108C45.7851 80.5001 36.4521 88.2351 25.3125 88.2351C12.3074 88.2351 1.76471 77.6924 1.76471 64.6873C1.76471 53.5477 9.49985 44.2146 19.8921 41.7664C19.757 42.8253 19.6875 43.9045 19.6875 45C19.6875 58.9797 31.0203 70.3125 45 70.3125Z" fill="white"/>
</g>
<defs>
<clipPath id="clip0_1_1220">
<rect width="90" height="90" fill="white"/>
</clipPath>
</defs>
</svg>
