<svg width="131" height="90" viewBox="0 0 131 90" fill="none" xmlns="http://www.w3.org/2000/svg">
<g clip-path="url(#clip0_1_1226)">
<path d="M41.3221 15H40.4429C38.5007 15 36.9261 16.5802 36.9261 18.5294V55.5882C36.9261 57.5374 38.5007 59.1176 40.4429 59.1176H41.3221C43.2643 59.1176 44.8389 57.5374 44.8389 55.5882V18.5294C44.8389 16.5802 43.2643 15 41.3221 15Z" fill="white"/>
<path d="M70.4969 10.5884H50.1141C48.1718 10.5884 46.5973 12.1686 46.5973 14.1178V59.6646C46.5973 61.6138 48.1718 63.194 50.1141 63.194H70.4969C72.4392 63.194 74.0137 61.6138 74.0137 59.6646V14.1178C74.0137 12.1686 72.4392 10.5884 70.4969 10.5884Z" fill="white"/>
<path d="M121.759 10.7114H100.332C98.3898 10.7114 96.8151 12.2916 96.8151 14.2408V59.7877C96.8151 61.7369 98.3898 63.3171 100.332 63.3171H121.759C123.702 63.3171 125.276 61.7369 125.276 59.7877V14.2408C125.276 12.2916 123.702 10.7114 121.759 10.7114Z" fill="white"/>
<path d="M130.252 61.7026V12.326C130.252 11.4343 129.532 10.7114 128.643 10.7114C127.754 10.7114 127.034 11.4342 127.034 12.326V61.7026C127.034 62.5943 127.754 63.3171 128.643 63.3171C129.532 63.3171 130.252 62.5943 130.252 61.7026Z" fill="white"/>
<path d="M81.621 10.5884H79.1275C77.1853 10.5884 75.6107 12.1686 75.6107 14.1178V59.6646C75.6107 61.6138 77.1853 63.194 79.1275 63.194H81.621C83.5632 63.194 85.1378 61.6138 85.1378 59.6646V14.1178C85.1378 12.1686 83.5632 10.5884 81.621 10.5884Z" fill="white"/>
<path d="M33.4094 0.882324H5.27515C2.84733 0.882324 0.879181 2.85754 0.879181 5.29409V84.7058C0.879181 87.1424 2.84733 89.1176 5.27515 89.1176H33.4094C35.8372 89.1176 37.8054 87.1424 37.8054 84.7058V5.29409C37.8054 2.85754 35.8372 0.882324 33.4094 0.882324Z" stroke="white" stroke-width="2"/>
<path d="M47.4765 89.9998H33.4094V88.2351C36.5745 88.2351 37.0728 85.8821 36.9262 84.7057V67.0586H38.6846H49.2349V87.3527C49.2349 89.1174 48.0627 89.8524 47.4765 89.9998Z" fill="white"/>
</g>
<defs>
<clipPath id="clip0_1_1226">
<rect width="131" height="90" fill="white"/>
</clipPath>
</defs>
</svg>
