<svg width="128" height="90" viewBox="0 0 128 90" fill="none" xmlns="http://www.w3.org/2000/svg">
<g clip-path="url(#clip0_1_1238)">
<path d="M124.493 0H45.5891C43.6523 0 42.0822 1.56483 42.0822 3.49515V25.3398C42.0822 27.2701 43.6523 28.835 45.5891 28.835H124.493C126.43 28.835 128 27.2701 128 25.3398V3.49515C128 1.56483 126.43 0 124.493 0Z" fill="white"/>
<path d="M103.452 30.5825H24.5479C22.6111 30.5825 21.0411 32.1473 21.0411 34.0777V55.9223C21.0411 57.8526 22.6111 59.4175 24.5479 59.4175H103.452C105.389 59.4175 106.959 57.8526 106.959 55.9223V34.0777C106.959 32.1473 105.389 30.5825 103.452 30.5825Z" fill="white"/>
<path d="M82.411 62.0391H3.50685C2.05426 62.0391 0.876709 63.2127 0.876709 64.6604V86.5051C0.876709 87.9528 2.05426 89.1264 3.50685 89.1264H82.411C83.8635 89.1264 85.0411 87.9528 85.0411 86.5051V64.6604C85.0411 63.2127 83.8635 62.0391 82.411 62.0391Z" stroke="white" stroke-width="2"/>
</g>
<defs>
<clipPath id="clip0_1_1238">
<rect width="128" height="90" fill="white"/>
</clipPath>
</defs>
</svg>
