<svg width="92" height="90" viewBox="0 0 92 90" fill="none" xmlns="http://www.w3.org/2000/svg">
<g clip-path="url(#clip0_1_1246)">
<path d="M46.8846 1.76468V0.882324H46H5.30772C2.86493 0.882324 0.884644 2.85753 0.884644 5.29409V84.7058C0.884644 87.1424 2.86492 89.1176 5.30772 89.1176H46H46.8846V88.2353V1.76468Z" stroke="white" stroke-width="2"/>
<path d="M5.56677 44.3762C5.22131 44.7207 5.22131 45.2794 5.56677 45.624L11.1965 51.2393C11.5419 51.5838 12.102 51.5838 12.4475 51.2393C12.7929 50.8946 12.7929 50.336 12.4475 49.9914L7.44333 45.0001L12.4475 40.0087C12.7929 39.6641 12.7929 39.1055 12.4475 38.7609C12.102 38.4163 11.5419 38.4163 11.1965 38.7609L5.56677 44.3762ZM41.5769 44.1177H6.19229V45.8824H41.5769V44.1177Z" fill="white"/>
<path d="M92 86.4706C92 88.4197 90.4156 90 88.4615 90H47.7692V0L88.4615 3.54834e-06C90.4156 3.71875e-06 92 1.58017 92 3.52942V86.4706Z" fill="white"/>
<path d="M90.1423 45.7943C90.5829 45.3555 90.5829 44.644 90.1423 44.2052L82.9734 37.0542C82.5334 36.6154 81.8201 36.6154 81.3802 37.0542C80.9402 37.4931 80.9402 38.2045 81.3802 38.6433L87.7529 44.9998L81.3802 51.3563C80.9402 51.795 80.9402 52.5066 81.3802 52.9454C81.8201 53.3842 82.5334 53.3842 82.9734 52.9454L90.1423 45.7943ZM50.4231 46.1235H89.3462V43.8761H50.4231V46.1235Z" fill="black"/>
</g>
<defs>
<clipPath id="clip0_1_1246">
<rect width="92" height="90" fill="white"/>
</clipPath>
</defs>
</svg>
