<svg width="90" height="90" viewBox="0 0 90 90" fill="none" xmlns="http://www.w3.org/2000/svg">
<g clip-path="url(#clip0_1_1261)">
<path fill-rule="evenodd" clip-rule="evenodd" d="M0 3.52941C0 1.58017 1.58017 0 3.52941 0H86.4706C88.4197 0 90 1.58017 90 3.52941V86.4706C90 88.4197 88.4197 90 86.4706 90H3.52941C1.58017 90 0 88.4197 0 86.4706V3.52941ZM1.76471 5.29412C1.76471 3.34488 3.34488 1.76471 5.29412 1.76471H26.4706C28.4198 1.76471 30 3.34488 30 5.29412V18.5294C30 20.4786 28.4198 22.0588 26.4706 22.0588H5.29412C3.34488 22.0588 1.76471 20.4786 1.76471 18.5294V5.29412ZM35.2941 1.76471C33.3449 1.76471 31.7647 3.34488 31.7647 5.29412V40.5882C31.7647 42.5374 33.3449 44.1176 35.2941 44.1176H84.7059C86.6551 44.1176 88.2353 42.5374 88.2353 40.5882V5.29412C88.2353 3.34488 86.6551 1.76471 84.7059 1.76471H35.2941ZM2.64706 49.4118C2.64706 47.4626 4.22723 45.8824 6.17647 45.8824H56.4706C58.4198 45.8824 60 47.4626 60 49.4118V84.7059C60 86.6551 58.4198 88.2353 56.4706 88.2353H6.17647C4.22723 88.2353 2.64706 86.6551 2.64706 84.7059V49.4118ZM65.2941 45.8824C63.3449 45.8824 61.7647 47.4626 61.7647 49.4118V84.7059C61.7647 86.6551 63.3449 88.2353 65.2941 88.2353H84.7059C86.6551 88.2353 88.2353 86.6551 88.2353 84.7059V49.4118C88.2353 47.4626 86.6551 45.8824 84.7059 45.8824H65.2941Z" fill="white"/>
</g>
<defs>
<clipPath id="clip0_1_1261">
<rect width="90" height="90" fill="white"/>
</clipPath>
</defs>
</svg>
