<svg width="90" height="90" viewBox="0 0 90 90" fill="none" xmlns="http://www.w3.org/2000/svg">
<g clip-path="url(#clip0_1_1267)">
<mask id="mask0_1_1267" style="mask-type:alpha" maskUnits="userSpaceOnUse" x="0" y="0" width="90" height="90">
<path d="M90 45C90 20.1472 69.8528 0 45 0C20.1472 0 0 20.1472 0 45C0 69.8528 20.1472 90 45 90C69.8528 90 90 69.8528 90 45Z" fill="white"/>
</mask>
<g mask="url(#mask0_1_1267)">
<path d="M90 45C90 20.1472 69.8528 0 45 0C20.1472 0 0 20.1472 0 45C0 69.8528 20.1472 90 45 90C69.8528 90 90 69.8528 90 45Z" fill="white"/>
<path d="M89.4229 46.4481L89.9268 46.52V46.0113V46.009V46.0067V46.0043V46.0019V45.9996V45.9972V45.9949V45.9925V45.9903V45.9879V45.9856V45.9833V45.981V45.9786V45.9763V45.974V45.9717V45.9694V45.9671V45.9648V45.9626V45.9603V45.958V45.9558V45.9535V45.9513V45.949V45.9468V45.9445V45.9423V45.94V45.9378V45.9355V45.9333V45.9311V45.9289V45.9267V45.9245V45.9223V45.9201V45.9179V45.9157V45.9135V45.9114V45.9092V45.907V45.9048V45.9026V45.9004V45.8983V45.8961V45.894V45.8919V45.8897V45.8875V45.8854V45.8832V45.8811V45.879V45.8769V45.8748V45.8726V45.8705V45.8684V45.8663V45.8642V45.8621V45.86V45.8579V45.8558V45.8538V45.8516V45.8495V45.8475V45.8454V45.8433V45.8412V45.8392V45.8372V45.835V45.833V45.831V45.8289V45.8268V45.8248V45.8228V45.8208V45.8187V45.8167V45.8147V45.8126V45.8106V45.8086V45.8065V45.8045V45.8026V45.8005V45.7985V45.7966V45.7945V45.7925V45.7906V45.7885V45.7866V45.7846V45.7826V45.7806V45.7787V45.7766V45.7747V45.7728V45.7708V45.7688V45.7668V45.7649V45.763V45.761V45.759V45.757V45.7551V45.7532V45.7512V45.7493V45.7473V45.7455V45.7435V45.7416V45.7397V45.7377V45.7358V45.7339V45.732V45.73V45.7281V45.7263V45.7243V45.7225V45.7205V45.7186V45.7167V45.7148V45.7129V45.711V45.7091V45.7073V45.7053V45.7035V45.7016V45.6997V45.6978V45.696V45.694V45.6922V45.6903V45.6885V45.6866V45.6847V45.6828V45.681V45.6791V45.6773V45.6754V45.6736V45.6717V45.6699V45.668V45.6662V45.6643V45.6625V45.6606V45.6588V45.6569V45.655V45.6533V45.6514V45.6496V45.6477V45.6459V45.6441V45.6423V45.6404V45.6386V45.6368V45.6349V45.6331V45.6313V45.6295V45.6277V45.6258V45.624V45.6222V45.6204V45.6186V45.6168V45.615V45.6131V45.6114V45.6095V45.6078V45.6059V45.6041V45.6023V45.6005V45.5987V45.5969V45.5951V45.5933V45.5915V45.5897V45.5879V45.5861V45.5843V45.5825V45.5808V45.5789V45.5771V45.5754V45.5735V45.5718V45.57V45.5682V45.5664V45.5646V45.5628V45.5611V45.5592V45.5575V45.5557V45.5539V45.5521V45.5503V45.5485V45.5468V45.545V45.5432V45.5414V45.5396V45.5379V45.5361V45.5343V45.5325V45.5307V45.529V45.5272V45.5254V45.5237V45.5218V45.5201V45.5183V45.5165V45.5148V45.513V45.5112V45.5094V45.5076V45.5058V45.5041V45.5023V45.5005V45.4988V45.4969V45.4952V45.4934V45.4916V45.4899V45.4881V45.4863V45.4845V45.4827V45.481V45.4792V45.4774V45.4757V45.4738V45.472V45.4703V45.4685V45.4668V45.465V45.4631V45.4614V45.4596V45.4578V45.456V45.4542V45.4525V45.4507V45.4489V45.4471V45.4453V45.4435V45.4418V45.4399V45.4382V45.4364V45.4345V45.4328V45.431V45.4292V45.4274V45.4256V45.4238V45.422V45.4203V45.4184V45.4166V45.4148V45.413V45.4113V45.4094V45.4076V45.4058V45.404V45.4022V45.4004V45.3985V45.3968V45.3949V45.3932V45.3913V45.3895V45.3877V45.3858V45.3841V45.3822V45.3805V45.3786V45.3768V45.375V45.3731V45.3713V45.3694V45.3677V45.3658V45.364V45.3621V45.3603V45.3585V45.3566V45.3548V45.3529V45.3511V45.3492V45.3474V45.3456V45.3438V45.3419V45.34V45.3382V45.3363V45.3344V45.3325V45.3307V45.3288V45.327V45.3251V45.3233V45.3213V45.3195V45.3176V45.3158V45.3139V45.312V45.3101V45.3083V45.3063V45.3045V45.3025V45.3007V45.2988V45.2969V45.295V45.2931V45.2912V45.2893V45.2874V45.2855V45.2836V45.2816V45.2798V45.2778V45.2759V45.274V45.272V45.2702V45.2682V45.2663V45.2643V45.2624V45.2605V45.2585V45.2566V45.2546V45.2527V45.2508V45.2488V45.2469V45.2448V45.2429V45.241V45.239V45.237V45.235V45.2331V45.2311V45.2291V45.2271V45.2252V45.2231V45.2212V45.2192V45.2171V45.2152V45.2132V45.2111V45.2092V45.2072V45.2051V45.2031V45.2011V45.199V45.197V45.195V45.193V45.1909V45.1889V45.1869V45.1848V45.1828V45.1808V45.1787V45.1766V45.1746V45.1725V45.1705V45.1684V45.1663V45.1643V45.1622V45.16V45.158V45.1559V45.1538V45.1518V45.1496V45.1475V45.1454V45.1433V45.1412V45.139V45.1369V45.1348V45.1327V45.1306V45.1285V45.1263V45.1241V45.122V45.1199V45.1177V45.1156V45.1134V45.1113V45.109V45.1069V45.1047V45.1026V45.1004V45.0982V45.096V45.0938V45.0916V45.0895V45.0873V45.085V45.0828V45.0805V45.0783V45.0761V45.0739V45.0716V45.0694V45.0672V45.0649V45.0627V45.0604V45.0582V45.0559V45.0536V45.0513V45.0491V45.0468V45.0445V45.0423V45.04V45.0377V45.0354V45.0331V45.0308V45.0285V45.0261V45.0238V45.0215V45.0191V45.0168V45.0145V45.0122V45.0098V45.0074V45.0051V45.0027V45.0003C89.9268 34.3795 86.0465 24.3743 79.9199 16.8181L79.623 16.4519L79.2773 16.7724C71.0251 24.4208 61.5652 30.4589 51.502 34.6855L51.0399 34.8796L51.291 35.3133C53.4967 39.1232 55.1033 43.1375 56.7228 47.1863L56.8582 47.5248L57.2162 47.4556C63.4571 46.2476 69.6973 45.6438 76.1397 45.6438C80.1735 45.6438 85.2056 45.8456 89.4229 46.4481ZM77.0459 14.1845L77.3826 13.8731L77.0583 13.5487C68.894 5.38445 57.6652 0.0758579 44.8048 -0.128276L44.7978 -0.128332C38.2628 -0.128332 31.931 1.30123 26.2113 3.95682L25.5692 4.25494L26.1197 4.70004C35.5838 12.3519 43.4337 21.4105 49.2691 31.4717L49.4618 31.804L49.8175 31.6588C59.7768 27.5938 68.9206 21.7004 77.0459 14.1845ZM22.8281 6.23457L22.5911 6.048L22.3312 6.20114C10.897 12.9392 2.72771 24.5782 0.685135 38.0592L0.619454 38.4927L1.05252 38.5611C4.92395 39.1724 8.79015 39.3753 12.647 39.3753C24.2252 39.3753 35.4004 37.3439 45.9672 33.2798L46.4543 33.0924L46.1885 32.6433C40.2951 22.6855 32.3719 13.7479 22.8281 6.23457ZM0.580159 41.7332L0.0735383 41.6572V42.1695V42.1754V42.1813V42.1872V42.1931V42.199V42.205V42.2108V42.2167V42.2226V42.2284V42.2343V42.2403V42.2461V42.252V42.2578V42.2636V42.2696V42.2754V42.2812V42.287V42.2928V42.2987V42.3045V42.3103V42.3161V42.322V42.3278V42.3336V42.3393V42.3452V42.351V42.3567V42.3625V42.3683V42.3741V42.3798V42.3857V42.3914V42.3971V42.4029V42.4087V42.4144V42.4202V42.4259V42.4316V42.4374V42.4431V42.4488V42.4546V42.4602V42.466V42.4717V42.4773V42.4831V42.4888V42.4945V42.5002V42.5058V42.5116V42.5172V42.5229V42.5286V42.5343V42.5399V42.5455V42.5512V42.5569V42.5626V42.5682V42.5739V42.5795V42.5851V42.5907V42.5964V42.602V42.6077V42.6132V42.6189V42.6245V42.6301V42.6357V42.6414V42.6469V42.6526V42.6581V42.6637V42.6693V42.6749V42.6805V42.6861V42.6917V42.6972V42.7028V42.7083V42.7139V42.7195V42.7251V42.7307V42.7362V42.7417V42.7473V42.7528V42.7584V42.7639V42.7695V42.775V42.7805V42.7861V42.7915V42.7971V42.8027V42.8081V42.8137V42.8192V42.8247V42.8302V42.8358V42.8412V42.8467V42.8523V42.8577V42.8632V42.8688V42.8742V42.8797V42.8852V42.8906V42.8961V42.9016V42.9071V42.9126V42.9181V42.9235V42.929V42.9344V42.9399V42.9453V42.9508V42.9563V42.9618V42.9672V42.9726V42.9781V42.9835V42.989V42.9944V42.9999V43.0053V43.0107V43.0162V43.0216V43.027V43.0324V43.0379V43.0433V43.0488V43.0541V43.0596V43.065V43.0704V43.0758V43.0812V43.0866V43.0921V43.0975V43.1028V43.1082V43.1137V43.1191V43.1245V43.1298V43.1352V43.1407V43.1461V43.1515V43.1568V43.1622V43.1676V43.173V43.1784V43.1838V43.1891V43.1945V43.1999V43.2053V43.2107V43.216V43.2214V43.2268V43.2322V43.2375V43.2429V43.2483V43.2536V43.259V43.2644V43.2697V43.2751V43.2805V43.2858V43.2911V43.2965V43.3019V43.3072V43.3126V43.318V43.3233V43.3286V43.334V43.3393V43.3447V43.3501V43.3554V43.3608V43.3661V43.3714V43.3768V43.3821V43.3875V43.3928V43.3982V43.4035V43.4088V43.4142V43.4195V43.4249V43.4302V43.4356V43.4409V43.4463V43.4515V43.4569V43.4622V43.4676V43.4729V43.4783V43.4836V43.489V43.4943V43.4995V43.5049V43.5102V43.5156V43.5209V43.5263V43.5316V43.5369V43.5423V43.5475V43.5529V43.5582V43.5636V43.5689V43.5743V43.5796V43.5849V43.5903V43.5956V43.6009V43.6062V43.6115V43.6169V43.6222V43.6276V43.6329V43.6383V43.6435V43.6488V43.6542V43.6595V43.6649V43.6702V43.6756V43.6809V43.6863V43.6915V43.6969V43.7022V43.7076V43.7129V43.7183V43.7236V43.7289V43.7343V43.7396V43.7449V43.7503V43.7556V43.761V43.7663V43.7717V43.777V43.7823V43.7876V43.793V43.7984V43.8037V43.8091V43.8144V43.8198V43.8251V43.8304V43.8358V43.8412V43.8465V43.8519V43.8573V43.8625V43.8679V43.8733V43.8786V43.884V43.8894V43.8948V43.9V43.9054V43.9108V43.9162V43.9216V43.9269V43.9323V43.9376V43.943V43.9484V43.9538V43.9592V43.9645V43.9699V43.9753V43.9807V43.9861V43.9915V43.9968V44.0022V44.0076V44.013V44.0184V44.0238V44.0291V44.0345V44.0399V44.0454V44.0508V44.0561V44.0615V44.0669V44.0724V44.0778V44.0831V44.0886V44.094V44.0994V44.1048V44.1102V44.1157V44.1211V44.1265V44.1319V44.1373V44.1428V44.1482V44.1536V44.1591V44.1645V44.17V44.1754V44.1808V44.1863V44.1918V44.1971V44.2026V44.2081V44.2135V44.219V44.2244V44.2299V44.2353V44.2408V44.2463V44.2518V44.2572V44.2627V44.2682V44.2736V44.2791V44.2847V44.2901V44.2956V44.3011V44.3065V44.3121V44.3176V44.323V44.3286V44.3341V44.3396V44.3451V44.3506V44.3561V44.3616V44.3672V44.3727V44.3782V44.3838V44.3893V44.3948V44.4003V44.4059V44.4115V44.4169V44.4225V44.428V44.4336V44.4392V44.4447V44.4503V44.4558V44.4614V44.467V44.4726V44.4782V44.4837V44.4893V44.4949V44.5005V44.506V44.5117V44.5173V44.5229V44.5285V44.5341V44.5397V44.5453V44.551V44.5565V44.5622V44.5678V44.5735V44.579V44.5847V44.5903V44.596V44.6016V44.6073V44.6129V44.6185V44.6242V44.6299V44.6356V44.6412V44.6469V44.6526V44.6583V44.664V44.6696V44.6753V44.681V44.6868V44.6924V44.6981V44.7039V44.7095V44.7153V44.721V44.7267V44.7325V44.7382V44.7439V44.7497V44.7554V44.7611V44.7669V44.7726V44.7784V44.7842V44.7899V44.7957V44.8015V44.8073V44.813V44.8188V44.8247V44.8304V44.8362V44.842V44.8479V44.8536V44.8594V44.8653V44.8711V44.8769V44.8827V44.8886V44.8945V44.9003V44.9061V44.912V44.9178V44.9238V44.9296V44.9355V44.9413V44.9472V44.9531V44.959V44.9649V44.9708V44.9767V44.9826V44.9885V44.9944V45.0003C0.0735383 55.009 3.34287 63.996 8.85318 71.5472L9.14445 71.9463L9.50815 71.6119C21.9918 60.1351 36.888 52.0842 52.9879 48.2605L53.472 48.1455L53.3 47.6787C51.8802 43.825 50.2536 39.9602 48.2165 36.2935L48.0308 35.9591L47.6735 36.0956C36.6024 40.3227 24.7256 42.5371 12.647 42.5371C8.61719 42.5371 4.59617 42.3355 0.580159 41.7332ZM11.335 73.9976L11.0237 74.2883L11.3031 74.6097C19.4721 84.004 31.5222 89.9271 45 89.9271C49.9027 89.9271 54.5986 89.1092 59.086 87.6818L59.3623 87.5939L59.3912 87.3053C59.5956 85.2613 59.5956 83.4228 59.5956 81.4069V81.3974C59.5956 71.0379 57.9704 61.0817 54.7191 51.531L54.5907 51.1536L54.2022 51.2433C38.3564 54.9 23.5253 62.62 11.335 73.9976ZM62.7574 85.6437V86.3256L63.3793 86.0462C77.4683 79.7163 87.8833 66.2401 89.7212 50.1055L89.7724 49.6589L89.325 49.6163C85.0788 49.2119 80.207 48.8055 76.1397 48.8055C70.0437 48.8055 64.1543 49.4151 58.2706 50.4295L57.7647 50.5168L57.9271 51.0039C61.1466 60.6626 62.7574 70.9278 62.7574 81.3974V81.4057V81.414V81.4223V81.4306V81.4389V81.4472V81.4555V81.4638V81.472V81.4803V81.4886V81.4969V81.5052V81.5135V81.5218V81.5301V81.5384V81.5467V81.555V81.5633V81.5716V81.5799V81.5882V81.5965V81.6048V81.613V81.6213V81.6296V81.6379V81.6462V81.6545V81.6628V81.6711V81.6794V81.6877V81.696V81.7043V81.7126V81.7209V81.7292V81.7375V81.7458V81.754V81.7623V81.7706V81.7789V81.7872V81.7955V81.8038V81.8121V81.8204V81.8287V81.837V81.8453V81.8536V81.8619V81.8702V81.8785V81.8868V81.8951V81.9033V81.9116V81.9199V81.9282V81.9365V81.9448V81.9531V81.9614V81.9697V81.978V81.9863V81.9946V82.0029V82.0112V82.0195V82.0278V82.036V82.0443V82.0526V82.0609V82.0692V82.0775V82.0858V82.0941V82.1024V82.1106V82.1189V82.1272V82.1355V82.1438V82.1521V82.1604V82.1687V82.177V82.1852V82.1935V82.2018V82.2101V82.2184V82.2267V82.235V82.2433V82.2516V82.2599V82.2682V82.2765V82.2848V82.2931V82.3014V82.3097V82.318V82.3262V82.3345V82.3428V82.3511V82.3594V82.3677V82.376V82.3843V82.3926V82.4009V82.4092V82.4175V82.4258V82.4341V82.4424V82.4507V82.459V82.4673V82.4755V82.4838V82.4921V82.5004V82.5087V82.517V82.5253V82.5336V82.5419V82.5502V82.5585V82.5668V82.5751V82.5834V82.5917V82.6V82.6083V82.6165V82.6248V82.6331V82.6414V82.6497V82.658V82.6663V82.6746V82.6829V82.6912V82.6995V82.7078V82.7161V82.7244V82.7327V82.741V82.7493V82.7575V82.7658V82.7741V82.7824V82.7907V82.799V82.8073V82.8156V82.8239V82.8322V82.8405V82.8488V82.8571V82.8654V82.8737V82.882V82.8903V82.8985V82.9068V82.9151V82.9234V82.9317V82.94V82.9483V82.9566V82.9649V82.9732V82.9815V82.9898V82.9981V83.0064V83.0147V83.023V83.0312V83.0395V83.0478V83.0561V83.0644V83.0727V83.081V83.0893V83.0976V83.1059V83.1142V83.1225V83.1308V83.1391V83.1474V83.1557V83.164V83.1722V83.1805V83.1888V83.1971V83.2054V83.2137V83.222V83.2303V83.2386V83.2469V83.2552V83.2635V83.2718V83.2801V83.2884V83.2967V83.305V83.3133V83.3215V83.3298V83.3381V83.3464V83.3547V83.363V83.3713V83.3796V83.3879V83.3962V83.4045V83.4128V83.4211V83.4294V83.4377V83.446V83.4543V83.4625V83.4708V83.4791V83.4874V83.4957V83.504V83.5123V83.5205V83.5288V83.5371V83.5454V83.5537V83.562V83.5703V83.5786V83.5869V83.5952V83.6035V83.6117V83.62V83.6283V83.6366V83.6449V83.6532V83.6615V83.6698V83.6781V83.6864V83.6947V83.703V83.7113V83.7196V83.7279V83.7362V83.7445V83.7528V83.761V83.7693V83.7776V83.7859V83.7942V83.8025V83.8108V83.8191V83.8274V83.8357V83.844V83.8523V83.8606V83.8689V83.8772V83.8855V83.8938V83.902V83.9103V83.9186V83.9269V83.9352V83.9435V83.9518V83.9601V83.9684V83.9767V83.985V83.9933V84.0016V84.0099V84.0182V84.0265V84.0348V84.043V84.0513V84.0596V84.0679V84.0762V84.0845V84.0928V84.1011V84.1094V84.1177V84.126V84.1343V84.1426V84.1509V84.1592V84.1675V84.1758V84.1841V84.1923V84.2006V84.2089V84.2172V84.2255V84.2338V84.2421V84.2504V84.2587V84.267V84.2753V84.2836V84.2919V84.3002V84.3085V84.3167V84.325V84.3333V84.3416V84.3499V84.3582V84.3665V84.3748V84.3831V84.3914V84.3997V84.408V84.4163V84.4246V84.4329V84.4412V84.4495V84.4577V84.466V84.4743V84.4826V84.4909V84.4992V84.5075V84.5158V84.5241V84.5324V84.5407V84.549V84.5573V84.5656V84.5739V84.5822V84.5905V84.5987V84.607V84.6153V84.6236V84.6319V84.6402V84.6485V84.6568V84.6651V84.6734V84.6817V84.69V84.6983V84.7066V84.7149V84.7232V84.7315V84.7398V84.748V84.7563V84.7646V84.7729V84.7812V84.7895V84.7978V84.8061V84.8144V84.8227V84.831V84.8393V84.8476V84.8559V84.8642V84.8725V84.8808V84.889V84.8973V84.9056V84.9139V84.9222V84.9305V84.9387V84.947V84.9553V84.9636V84.9719V84.9802V84.9885V84.9968V85.0051V85.0134V85.0217V85.03V85.0382V85.0465V85.0548V85.0631V85.0714V85.0797V85.088V85.0963V85.1046V85.1129V85.1212V85.1295V85.1378V85.1461V85.1544V85.1627V85.171V85.1793V85.1875V85.1958V85.2041V85.2124V85.2207V85.229V85.2373V85.2456V85.2539V85.2622V85.2705V85.2788V85.2871V85.2954V85.3037V85.312V85.3203V85.3285V85.3368V85.3451V85.3534V85.3617V85.37V85.3783V85.3866V85.3949V85.4032V85.4115V85.4198V85.4281V85.4364V85.4447V85.453V85.4613V85.4695V85.4778V85.4861V85.4944V85.5027V85.511V85.5193V85.5276V85.5359V85.5442V85.5525V85.5608V85.5691V85.5774V85.5857V85.594V85.6023V85.6105V85.6188V85.6271V85.6354V85.6437ZM-3.08823 45.0003C-3.08823 18.5528 18.5524 -3.08789 45 -3.08789C71.4476 -3.08789 93.0882 18.5528 93.0882 45.0003C93.0882 71.4479 71.4476 93.0886 45 93.0886C18.5524 93.0886 -3.08823 71.4479 -3.08823 45.0003Z" fill="#131313" stroke="white"/>
</g>
</g>
<defs>
<clipPath id="clip0_1_1267">
<rect width="90" height="90" fill="white"/>
</clipPath>
</defs>
</svg>
