<svg width="90" height="90" viewBox="0 0 90 90" fill="none" xmlns="http://www.w3.org/2000/svg">
<g clip-path="url(#clip0_1_1278)">
<path fill-rule="evenodd" clip-rule="evenodd" d="M3.52941 0C1.58017 0 0 1.58017 0 3.52941V86.4706C0 88.4197 1.58017 90 3.52941 90H86.4706C88.4197 90 90 88.4197 90 86.4706V3.52941C90 1.58017 88.4197 0 86.4706 0H3.52941ZM84.7059 66.1765C86.6551 66.1765 88.2353 64.5963 88.2353 62.6471V84.7059C88.2353 86.6551 86.6551 88.2353 84.7059 88.2353H5.29412C3.34488 88.2353 1.76471 86.6551 1.76471 84.7059V62.6471C1.76471 64.5963 3.34488 66.1765 5.29412 66.1765H84.7059ZM10.5882 8.38235C10.5882 9.60062 9.60062 10.5882 8.38235 10.5882C7.16408 10.5882 6.17647 9.60062 6.17647 8.38235C6.17647 7.16408 7.16408 6.17647 8.38235 6.17647C9.60062 6.17647 10.5882 7.16408 10.5882 8.38235ZM16.7647 8.38235C16.7647 9.60062 15.7771 10.5882 14.5588 10.5882C13.3406 10.5882 12.3529 9.60062 12.3529 8.38235C12.3529 7.16408 13.3406 6.17647 14.5588 6.17647C15.7771 6.17647 16.7647 7.16408 16.7647 8.38235ZM20.7353 10.5882C21.9536 10.5882 22.9412 9.60062 22.9412 8.38235C22.9412 7.16408 21.9536 6.17647 20.7353 6.17647C19.517 6.17647 18.5294 7.16408 18.5294 8.38235C18.5294 9.60062 19.517 10.5882 20.7353 10.5882ZM23.7172 35.0815C27.557 35.0815 30.6697 31.9688 30.6697 28.129C30.6697 24.2892 27.557 21.1765 23.7172 21.1765C19.8775 21.1765 16.7647 24.2892 16.7647 28.129C16.7647 31.9688 19.8775 35.0815 23.7172 35.0815ZM52.9174 28.1784L41.6473 39.4657L39.9318 37.7472C38.2871 36.0997 35.6177 36.0997 33.9731 37.7472L19.3489 52.3969C19.1484 52.5979 19.2907 52.9412 19.5747 52.9412H54.3301C54.6141 52.9412 54.7564 52.5979 54.5558 52.3969L48.2861 46.1162H76.0167C76.3008 46.1162 76.4432 45.7729 76.2424 45.5719L58.8754 28.1784C57.2309 26.5314 54.562 26.5314 52.9174 28.1784ZM48.2861 46.1162L41.6473 39.4657L35.5504 45.5719C35.3498 45.7729 35.4921 46.1162 35.7761 46.1162H48.2861Z" fill="white"/>
</g>
<defs>
<clipPath id="clip0_1_1278">
<rect width="90" height="90" fill="white"/>
</clipPath>
</defs>
</svg>
