<svg width="178" height="21" viewBox="0 0 178 21" fill="none" xmlns="http://www.w3.org/2000/svg">
<g clip-path="url(#clip0_1_1399)">
<path d="M127.462 4.36801C127.109 2.6235 125.674 0.371094 121.986 0.371094C119.071 0.371094 116.664 2.53517 116.664 5.16297C116.664 7.50371 118.254 9.07156 120.639 9.55737L122.847 10.0211C124.194 10.3082 124.945 11.1252 124.945 12.141C124.945 13.3555 123.973 14.3051 122.096 14.3051C119.844 14.3051 118.674 12.8035 118.519 11.1694L116.046 11.876C116.289 14.1284 118.122 16.69 122.096 16.69C125.674 16.69 127.639 14.3713 127.639 11.9423C127.639 9.73403 126.16 7.98952 123.399 7.43746L121.147 6.97373C119.932 6.70874 119.314 5.95794 119.314 4.96423C119.314 3.77178 120.418 2.71183 122.008 2.71183C124.106 2.71183 124.923 4.14718 125.078 5.11881L127.462 4.36801Z" fill="black"/>
<path d="M135.237 15.1662C135.237 15.6078 135.281 16.1157 135.325 16.3587H137.776C137.732 15.9612 137.666 15.2766 137.666 14.3933V5.60449H135.104V11.9643C135.104 13.3775 134.331 14.3712 132.852 14.3712C131.306 14.3712 130.688 13.245 130.688 11.9201V5.60449H128.126V12.3838C128.126 14.7687 129.628 16.6678 132.189 16.6678C133.448 16.6678 134.707 16.1378 135.237 15.1662Z" fill="black"/>
<path d="M141.975 20.554V15.1438C142.527 15.9609 143.698 16.6233 145.243 16.6233C148.335 16.6233 150.3 14.1943 150.3 10.9702C150.3 7.79039 148.512 5.36133 145.332 5.36133C143.675 5.36133 142.439 6.13421 141.909 7.06167V5.60423H139.436V20.554H141.975ZM147.739 10.9702C147.739 13.0239 146.546 14.3489 144.846 14.3489C143.168 14.3489 141.953 13.0239 141.953 10.9702C141.953 8.96076 143.168 7.63581 144.846 7.63581C146.568 7.63581 147.739 8.96076 147.739 10.9702Z" fill="black"/>
<path d="M153.756 20.554V15.1438C154.308 15.9609 155.479 16.6233 157.025 16.6233C160.116 16.6233 162.081 14.1943 162.081 10.9702C162.081 7.79039 160.293 5.36133 157.113 5.36133C155.457 5.36133 154.22 6.13421 153.69 7.06167V5.60423H151.217V20.554H153.756ZM159.52 10.9702C159.52 13.0239 158.327 14.3489 156.627 14.3489C154.949 14.3489 153.734 13.0239 153.734 10.9702C153.734 8.96076 154.949 7.63581 156.627 7.63581C158.35 7.63581 159.52 8.96076 159.52 10.9702Z" fill="black"/>
<path d="M165.56 16.3588V0.371094H162.998V16.3588H165.56Z" fill="black"/>
<path d="M170.586 20.7089L177.432 5.60449H174.716L171.823 12.4059L168.731 5.60449H165.839L170.432 15.0779L167.848 20.7089H170.586Z" fill="black"/>
<path d="M103.046 12.709C104.703 12.709 106.046 11.3658 106.046 9.70898C106.046 8.05213 104.703 6.70898 103.046 6.70898C101.389 6.70898 100.046 8.05213 100.046 9.70898C100.046 11.3658 101.389 12.709 103.046 12.709Z" fill="white"/>
<path d="M8.86221 5.15143C8.68758 4.27831 7.98908 2.96862 6.02456 2.96862C4.54024 2.96862 3.57981 3.92906 3.57981 4.93315C3.57981 5.80627 4.14734 6.46112 5.2824 6.6794L7.46521 7.11596C10.3029 7.68349 11.8308 9.51705 11.8308 11.6999C11.8308 14.101 9.82265 16.502 6.19918 16.502C2.0955 16.502 0.261937 13.839 0 11.6126L2.79399 10.8704C2.92496 12.3984 4.01637 13.7954 6.19918 13.7954C7.81446 13.7954 8.73124 12.9659 8.73124 11.8745C8.73124 10.9577 8.03274 10.2592 6.85402 10.0409L4.67121 9.60437C2.18281 9.08049 0.611183 7.50887 0.611183 5.15143C0.611183 2.40109 3.09959 0.261937 6.02456 0.261937C9.77899 0.261937 11.2633 2.53206 11.6126 4.32197L8.86221 5.15143ZM23.1814 13.0969C22.6139 14.9741 20.9113 16.5457 18.2483 16.5457C15.2797 16.5457 12.6603 14.4065 12.6603 10.7831C12.6603 7.33424 15.1924 5.10777 17.9864 5.10777C21.3042 5.10777 23.3124 7.24693 23.3124 10.6958C23.3124 11.1323 23.2688 11.5689 23.2688 11.6126H15.5416C15.5853 13.0532 16.8076 14.0573 18.2483 14.0573C19.6016 14.0573 20.3438 13.3588 20.693 12.3984L23.1814 13.0969ZM20.4748 9.56071C20.4311 8.4693 19.7326 7.42156 18.0737 7.42156C16.8513 7.3779 15.7599 8.29468 15.6726 9.56071H20.4748ZM24.3602 16.1965V5.36971H27.1542V6.6794C27.7653 5.63165 29.1187 5.06412 30.2974 5.06412C31.7817 5.06412 32.9604 5.71896 33.4843 6.85402C34.3574 5.54434 35.4925 5.06412 36.8895 5.06412C38.8977 5.06412 40.7749 6.28649 40.7749 9.1678V16.1965H37.9372V9.77899C37.9372 8.60027 37.3697 7.72715 36.0164 7.72715C34.7503 7.72715 34.0082 8.68758 34.0082 9.8663V16.1965H31.1269V9.77899C31.1269 8.60027 30.5157 7.72715 29.206 7.72715C27.94 7.72715 27.1978 8.68758 27.1978 9.8663V16.1965H24.3602ZM42.0846 20.3875V5.36971H44.9222V6.6794C45.4024 5.84993 46.6248 5.10777 48.2401 5.10777C51.3833 5.10777 53.2169 7.50887 53.2169 10.7394C53.2169 14.0136 51.1651 16.4147 48.1091 16.4147C46.6248 16.4147 45.5334 15.8035 45.0095 15.105V20.3438L42.0846 20.3875ZM47.6289 7.7708C46.1446 7.7708 44.9222 8.90586 44.9222 10.7831C44.9222 12.6603 46.1446 13.839 47.6289 13.839C49.1132 13.839 50.292 12.704 50.292 10.7831C50.292 8.86221 49.1132 7.7708 47.6289 7.7708ZM54.3956 16.1965V0.305592H57.3206V16.1965H54.3956ZM60.2456 0C61.2497 0 62.0355 0.785811 62.0355 1.7899C62.0355 2.794 61.2497 3.57981 60.2456 3.57981C59.2415 3.57981 58.4557 2.794 58.4557 1.7899C58.412 0.873123 59.1978 0.0436562 60.2456 0C60.2019 0 60.2019 0 60.2456 0ZM58.7612 16.1965V5.36971H61.6862V16.1965H58.7612ZM66.0082 10.7831C66.0082 12.7476 67.2742 13.839 68.7585 13.839C69.8936 13.8827 70.9413 13.1405 71.2469 12.0055L73.8226 12.8786C73.3424 14.6685 71.6398 16.5457 68.7585 16.5457C65.5716 16.5457 63.0832 14.1446 63.0832 10.8267C63.0832 7.46521 65.528 5.10777 68.6712 5.10777C71.5962 5.10777 73.2988 6.94134 73.7353 8.7749L71.116 9.64802C70.854 8.73124 70.1555 7.81446 68.7149 7.81446C67.2742 7.77081 66.0082 8.81855 66.0082 10.7831ZM84.955 13.0969C84.3875 14.9741 82.6848 16.5457 80.0218 16.5457C77.0532 16.5457 74.4338 14.4065 74.4338 10.7831C74.4338 7.33424 76.9659 5.10777 79.7599 5.10777C83.0778 5.10777 85.0859 7.24693 85.0859 10.6958C85.0859 11.1323 85.0423 11.5689 85.0423 11.6126H77.3151C77.3588 13.0532 78.5812 14.0573 80.0218 14.0573C81.3752 14.0573 82.1173 13.3588 82.4666 12.3984L84.955 13.0969ZM82.2483 9.56071C82.2046 8.4693 81.5061 7.42156 79.8472 7.42156C78.6248 7.3779 77.5334 8.29468 77.4461 9.56071H82.2483ZM86.5703 2.00818V5.58799H85.6971V2.00818H84.3001V1.17872H87.9236V2.00818H86.5703ZM92.5948 5.58799V2.53206L91.3288 5.58799H90.6303L89.3643 2.53206V5.58799H88.5348V1.22237H89.6698L90.9795 4.36562L92.2456 1.22237H93.4243V5.58799H92.5948Z" fill="white"/>
</g>
<defs>
<clipPath id="clip0_1_1399">
<rect width="178" height="21" fill="white"/>
</clipPath>
</defs>
</svg>
