<svg width="420" height="40" viewBox="0 0 420 40" fill="none" xmlns="http://www.w3.org/2000/svg">
<path d="M171 16.3084C169.702 16.3084 168.646 17.3644 168.646 18.6404C168.646 19.9384 169.702 20.9944 171 20.9944C172.276 20.9944 173.332 19.9384 173.332 18.6404C173.332 17.3644 172.276 16.3084 171 16.3084ZM184.09 27.0004H189.634C193.44 27.0004 195.068 25.2184 195.068 22.4464C195.068 20.3564 193.814 19.1244 192.582 18.7284V18.6624C193.638 18.2004 194.496 17.2324 194.496 15.5824C194.496 13.3164 192.78 11.6004 190.008 11.6004H184.09V27.0004ZM185.916 18.1124V13.2724H189.656C191.548 13.2724 192.692 14.1084 192.692 15.6924C192.692 17.2324 191.746 18.1124 189.678 18.1124H185.916ZM185.916 25.3284V19.7404H189.436C191.988 19.7404 193.264 20.4444 193.264 22.4464C193.264 24.5364 191.878 25.3284 189.392 25.3284H185.916ZM198.047 22.9304C198.047 25.9444 199.653 27.3304 202.161 27.3304C204.273 27.3304 205.263 25.8784 205.263 25.8784H205.307V27.0004H207.067V15.3404H205.285V22.5784C205.285 24.5144 204.317 25.6584 202.557 25.6584C200.621 25.6584 199.851 24.8444 199.851 22.6664V15.3404H198.047V22.9304ZM210.943 27.0004H212.747V15.3404H210.943V27.0004ZM210.811 12.9864H212.879V10.9404H210.811V12.9864ZM216.612 27.0004H218.438V10.9404H216.612V27.0004ZM229.745 23.1284C229.745 24.4704 228.513 25.7024 226.753 25.7024C224.421 25.7024 223.211 24.0084 223.211 21.1704C223.211 18.3324 224.421 16.6384 226.753 16.6384C228.689 16.6384 229.745 18.1784 229.745 19.5204V23.1284ZM229.921 27.0004H231.549V10.9404H229.745V16.4624H229.701C229.107 15.7584 228.051 15.0104 226.467 15.0104C223.651 15.0104 221.407 17.3644 221.407 21.1704C221.407 24.9104 223.387 27.3304 226.467 27.3304C228.205 27.3304 229.393 26.4504 229.877 25.8784H229.921V27.0004ZM235.414 27.0004H237.218V15.3404H235.414V27.0004ZM235.282 12.9864H237.35V10.9404H235.282V12.9864ZM241.083 27.0004H242.887V19.5644C242.887 17.7164 244.119 16.6604 245.901 16.6604C247.727 16.6604 248.585 17.8044 248.585 19.9164V27.0004H250.367V19.3444C250.367 16.6384 248.673 15.0104 246.165 15.0104C244.801 15.0104 243.503 15.6484 242.887 16.4624H242.843V15.3404H241.083V27.0004ZM254.105 29.1124C254.721 30.9164 256.239 32.2804 258.725 32.2804C261.585 32.2804 263.411 30.5644 263.411 27.1764V15.3404H261.651V16.4624H261.607C260.903 15.5824 259.803 15.0104 258.329 15.0104C255.491 15.0104 253.225 17.3644 253.225 21.1704C253.225 24.9764 255.315 27.3304 258.351 27.3304C260.067 27.3304 261.057 26.6044 261.585 25.9884H261.629V27.5504C261.629 29.5084 260.573 30.6744 258.681 30.6744C256.811 30.6744 256.063 29.5524 255.623 28.3424L254.105 29.1124ZM261.629 23.1724C261.629 24.4924 260.375 25.7024 258.615 25.7024C256.283 25.7024 255.029 24.0084 255.029 21.1704C255.029 18.3324 256.305 16.6384 258.615 16.6384C260.551 16.6384 261.629 18.1564 261.629 19.4764V23.1724ZM274.23 27.0004H275.902L279.202 17.4744H279.246L282.546 27.0004H284.196L286.99 15.3404H285.23L283.14 24.1184H283.096L280.06 15.3404H278.432L275.352 24.1184H275.308L273.438 15.3404H271.656L274.23 27.0004ZM289.984 27.0004H291.788V15.3404H289.984V27.0004ZM289.852 12.9864H291.92V10.9404H289.852V12.9864ZM296.071 23.6124C296.071 25.7904 296.929 27.0004 299.195 27.0004H300.163V25.2624H299.283C298.095 25.2624 297.853 24.6904 297.853 23.3924V16.9464H300.713V15.3404H297.831V12.4804H296.115V15.3404H294.443V16.9464H296.071V23.6124ZM303.581 27.0004H305.385V19.6744C305.385 17.8924 306.595 16.6604 308.509 16.6604C310.401 16.6604 311.215 17.9144 311.215 19.8724V27.0004H313.019V19.3884C313.019 16.4844 311.237 15.0104 308.839 15.0104C307.409 15.0104 306.067 15.6484 305.429 16.5064H305.385V10.9404H303.581V27.0004ZM322.363 27.0004H324.189V21.0604H328.325C331.383 21.0604 333.429 19.4104 333.429 16.3524C333.429 13.2504 331.295 11.6004 328.281 11.6004H322.363V27.0004ZM324.189 19.3884V13.2724H328.171C329.953 13.2724 331.581 14.1304 331.581 16.3524C331.581 18.4644 329.997 19.3884 328.215 19.3884H324.189ZM335.743 27.0004H337.547V20.0704C337.547 17.8924 338.185 16.9684 339.681 16.9684C340.275 16.9684 340.605 17.1444 340.605 17.1444L340.935 15.3624C340.935 15.3624 340.517 15.1424 339.923 15.1424C339.043 15.1424 338.009 15.6044 337.503 16.5944H337.459V15.3404H335.743V27.0004ZM343.588 27.0004H345.392V15.3404H343.588V27.0004ZM343.456 12.9864H345.524V10.9404H343.456V12.9864ZM356.825 23.1284C356.825 24.4704 355.593 25.7024 353.833 25.7024C351.501 25.7024 350.291 24.0084 350.291 21.1704C350.291 18.3324 351.501 16.6384 353.833 16.6384C355.769 16.6384 356.825 18.1784 356.825 19.5204V23.1284ZM357.001 27.0004H358.629V10.9404H356.825V16.4624H356.781C356.187 15.7584 355.131 15.0104 353.547 15.0104C350.731 15.0104 348.487 17.3644 348.487 21.1704C348.487 24.9104 350.467 27.3304 353.547 27.3304C355.285 27.3304 356.473 26.4504 356.957 25.8784H357.001V27.0004ZM370.436 23.4144C370.018 24.1844 369.314 25.7024 366.96 25.7024C364.54 25.7024 363.418 23.7664 363.396 21.6984H372.152V21.1704C372.152 17.2764 369.974 15.0104 366.916 15.0104C363.836 15.0104 361.592 17.3864 361.592 21.1704C361.592 24.9544 363.88 27.3304 367.004 27.3304C369.556 27.3304 371.118 25.8784 371.888 24.3604L370.436 23.4144ZM363.44 20.2684C363.462 18.8384 364.408 16.6384 366.916 16.6384C369.446 16.6384 370.326 18.5744 370.37 20.2684H363.44ZM374.914 27.0004H377.51V24.4044H374.914V27.0004Z" fill="black"/>
<path d="M58.808 14.4376C58.6272 13.4429 57.8133 11.9055 55.5224 11.9055C53.8344 11.9055 52.6889 12.9907 52.6889 14.1964C52.6889 15.1912 53.322 15.9749 54.6483 16.216L57.1502 16.6983C60.4358 17.3313 62.1841 19.4715 62.1841 22.0036C62.1841 24.7767 59.8631 27.5801 55.6731 27.5801C50.9105 27.5801 48.8005 24.5055 48.499 21.9433L51.7545 21.0691C51.9052 22.8476 53.1411 24.4452 55.7033 24.4452C57.5722 24.4452 58.6272 23.5107 58.6272 22.2447C58.6272 21.1897 57.8435 20.3758 56.4267 20.1045L53.955 19.5921C51.0914 19.0194 49.2225 17.1505 49.2225 14.4376C49.2225 11.2424 52.0861 8.80078 55.4923 8.80078C59.8631 8.80078 61.5511 11.4534 61.943 13.473L58.808 14.4376Z" fill="black"/>
<path d="M75.389 23.6024C74.756 25.7727 72.7665 27.5511 69.6919 27.5511C66.2555 27.5511 63.2412 25.0794 63.2412 20.8593C63.2412 16.8804 66.1953 14.2881 69.3905 14.2881C73.2488 14.2881 75.5698 16.7598 75.5698 20.7689C75.5698 21.2512 75.5095 21.7636 75.5095 21.8239H66.557C66.6173 23.4818 68.034 24.6574 69.722 24.6574C71.2895 24.6574 72.1636 23.8737 72.5555 22.7584L75.389 23.6024ZM72.2541 19.533C72.1938 18.2971 71.3799 17.0613 69.4507 17.0613C67.7024 17.0613 66.7378 18.3876 66.6474 19.533H72.2541Z" fill="black"/>
<path d="M76.7734 27.1888V14.7095H79.9988V16.2468C80.6921 15.0411 82.2897 14.3779 83.6461 14.3779C85.3341 14.3779 86.7207 15.1014 87.3537 16.4578C88.3485 14.9205 89.6748 14.3779 91.3025 14.3779C93.6236 14.3779 95.824 15.7645 95.824 19.1406V27.2491H92.5384V19.7736C92.5384 18.4171 91.8753 17.4224 90.3379 17.4224C88.8911 17.4224 88.0169 18.5377 88.0169 19.8942V27.219H84.7011V19.7736C84.7011 18.4171 84.0078 17.4224 82.5007 17.4224C81.0237 17.4224 80.1495 18.5076 80.1495 19.8942V27.219H76.7734V27.1888Z" fill="black"/>
<path d="M97.2695 32.012V14.7098H100.555V16.2471C101.128 15.2825 102.514 14.4385 104.383 14.4385C108.031 14.4385 110.141 17.2418 110.141 20.9494C110.141 24.7475 107.79 27.5207 104.233 27.5207C102.514 27.5207 101.248 26.8274 100.615 25.9834V32.0422H97.2695V32.012ZM103.72 17.4528C102.002 17.4528 100.585 18.749 100.585 20.9494C100.585 23.1499 101.972 24.4762 103.72 24.4762C105.438 24.4762 106.825 23.18 106.825 20.9494C106.795 18.749 105.438 17.4528 103.72 17.4528Z" fill="black"/>
<path d="M114.906 8.80078H111.53V27.1882H114.906V8.80078Z" fill="black"/>
<path d="M118.279 8.5C119.455 8.5 120.359 9.43444 120.359 10.61C120.359 11.7253 119.455 12.6598 118.279 12.6598C117.134 12.6598 116.199 11.7253 116.199 10.61C116.199 9.43444 117.134 8.5 118.279 8.5ZM116.621 14.7095H119.997V27.219H116.621V14.7095Z" fill="black"/>
<path d="M125.003 20.9499C125.003 23.2106 126.48 24.4767 128.198 24.4767C129.916 24.4767 130.791 23.3312 131.062 22.3666L134.046 23.3614C133.473 25.4412 131.544 27.5814 128.198 27.5814C124.521 27.5814 121.627 24.7781 121.627 20.9499C121.627 17.0915 124.46 14.3184 128.108 14.3184C131.514 14.3184 133.443 16.4284 133.986 18.5384L130.971 19.5633C130.67 18.5083 129.886 17.4533 128.198 17.4533C126.45 17.4533 125.003 18.6891 125.003 20.9499Z" fill="black"/>
<path d="M146.946 23.6024C146.313 25.7727 144.323 27.5511 141.249 27.5511C137.812 27.5511 134.798 25.0794 134.798 20.8593C134.798 16.8804 137.752 14.2881 140.947 14.2881C144.805 14.2881 147.126 16.7598 147.126 20.7689C147.126 21.2512 147.066 21.7636 147.066 21.8239H138.114C138.174 23.4818 139.591 24.6574 141.279 24.6574C142.846 24.6574 143.72 23.8737 144.112 22.7584L146.946 23.6024ZM143.811 19.533C143.75 18.2971 142.937 17.0613 141.007 17.0613C139.259 17.0613 138.294 18.3876 138.204 19.533H143.811Z" fill="black"/>
<path d="M148.819 10.7899V14.9195H147.824V10.7899H146.227V9.85547H150.416V10.7899H148.819Z" fill="black"/>
<path d="M155.779 14.9195V11.3626L154.302 14.9195H153.488L152.041 11.3928V14.9195H151.106V9.85547H152.403L153.91 13.5028L155.387 9.85547H156.743V14.9195H155.779Z" fill="black"/>
<path d="M22.8509 5.4258L24.9911 1.8086C24.9911 1.8086 22.881 0.81387 22.7002 3.01433C22.6399 3.88849 22.0973 4.22007 21.5849 4.22007C21.0121 4.22007 20.5901 3.76792 20.5901 3.22534C20.5901 2.65261 21.0423 2.23061 21.5849 2.23061C21.7054 2.23061 21.7959 2.26075 21.7959 2.26075C22.0973 1.29616 21.1628 0.99473 20.6203 1.29616C20.6203 1.29616 20.771 0.422007 19.927 0C19.0227 0.391863 19.2337 1.29616 19.2337 1.29616C18.6911 0.99473 17.7567 1.29616 18.0581 2.26075C18.0581 2.26075 18.1485 2.23061 18.2691 2.23061C18.8117 2.23061 19.2638 2.65261 19.2638 3.22534C19.2638 3.76792 18.8418 4.22007 18.2691 4.22007C17.7567 4.22007 17.2141 3.88849 17.1538 3.01433C17.0031 0.81387 14.7725 1.65788 14.7725 1.65788L17.0332 5.4258H22.8509Z" fill="black"/>
<path d="M36.2022 17.4832C39.5481 17.0913 39.5179 14.3784 39.5179 14.3784C35.328 15.1019 32.9768 12.7808 32.9768 12.7808C32.9768 12.7808 35.5993 13.8961 37.7093 12.7808C39.7591 11.6957 39.4878 9.37464 39.4878 9.37464C34.6347 10.9722 32.8864 9.25406 32.8864 9.25406C32.8864 9.25406 34.8457 9.67607 36.5036 8.68134C38.7643 7.32489 37.7696 5.30529 37.7696 5.30529C34.0921 7.02346 32.4342 6.1493 32.4342 6.1493C32.4342 6.1493 34.273 6.11916 35.328 4.03927C36.1419 2.44167 34.7854 1.20579 34.7854 1.20579C32.9467 3.91869 30.0228 3.52683 28.0333 4.67228C26.707 5.42586 27.9127 6.8426 27.9127 6.8426C29.2089 6.3603 30.3543 7.80718 30.3543 9.94736C30.3543 12.9918 27.8524 14.71 25.1998 14.71C22.4869 14.71 21.3113 13.5344 21.3113 10.7612C21.3113 9.61578 21.5826 9.13349 22.4568 9.13349C23.3008 9.13349 23.6625 9.7665 23.6625 9.7665C23.6625 9.7665 24.175 9.04306 24.175 8.01819C24.175 6.69188 23.2104 6.3603 22.1252 6.3603H16.5487C16.5487 7.08374 16.7898 7.92776 17.5736 8.1689C17.5736 8.1689 17.3023 10.2789 17.031 12.6C16.8501 14.1071 15.6444 14.6799 14.3482 14.6799C11.8463 14.6799 9.19373 13.1124 9.19373 9.91722C9.19373 8.07847 10.1885 6.30002 11.6353 6.81245C12.0875 6.30002 12.4793 5.33543 11.6052 4.70242C10.098 3.61726 6.51097 3.91869 4.73251 1.14551C4.73251 1.14551 3.37606 2.38138 4.18993 3.97898C5.21481 6.02873 7.08369 6.08901 7.08369 6.08901C7.08369 6.08901 5.42581 6.99331 1.74832 5.27514C1.74832 5.27514 0.753593 7.29475 3.01434 8.6512C4.67223 9.64593 6.63154 9.22392 6.63154 9.22392C6.63154 9.22392 4.88323 10.9421 0.0301528 9.34449C0.0301528 9.34449 -0.241137 11.6354 1.80861 12.7507C3.91864 13.866 6.54111 12.7507 6.54111 12.7507C6.54111 12.7507 4.18993 15.1019 9.44271e-06 14.3784C9.44271e-06 14.3784 -0.030134 17.0913 3.31578 17.4832C5.96839 17.8148 8.13871 15.9459 8.13871 15.9459C8.13871 15.9459 7.47556 18.5081 1.29617 19.3521C1.29617 19.3521 2.83348 22.065 6.6014 21.1004C9.1033 20.4674 10.6406 18.2669 10.6406 18.2669C10.6406 18.2669 9.61573 21.5224 4.34065 23.4817C4.34065 23.4817 5.96839 25.3205 9.49516 23.8736C12.4492 22.6377 13.6851 19.6837 13.6851 19.6837C13.6851 19.6837 13.2932 22.3966 10.731 25.1095C10.731 25.1095 11.5148 25.2903 12.2081 25.019C14.6497 24.0243 16.187 22.4267 16.5788 19.8947C16.5788 19.8947 17.3023 20.588 17.1214 21.9444C16.8501 23.8133 13.7152 25.9233 13.7152 25.9233L14.1372 26.5563C13.3535 27.0085 12.2081 27.7018 11.7559 27.9429C10.8516 27.3702 9.70616 26.707 9.46502 26.5563C8.65115 26.074 7.05355 26.1042 6.84255 28.0334C7.59613 27.1893 8.25928 27.3099 9.07315 27.7319C9.22387 27.7922 9.91717 28.2142 10.5502 28.6061C10.1282 28.8472 9.85688 29.0281 9.79659 29.0582C8.98272 29.5405 8.25928 30.9573 9.85688 32.0424C9.46502 30.9874 9.88702 30.475 10.6707 29.9324C10.731 29.8721 11.153 29.631 11.6956 29.2994C12.0272 29.5104 12.5095 29.842 12.5698 29.9022C13.3234 30.475 13.7152 30.9874 13.3234 32.0424C14.9511 30.9874 14.2879 29.5707 13.4741 29.0582C13.4439 29.0281 13.0822 28.7869 12.8411 28.6362C13.1425 28.4554 14.0769 27.8826 14.7401 27.5209L15.1621 28.1539L17.875 26.5262C17.9051 26.7975 17.9353 27.1893 17.9051 27.5511C17.664 29.5405 16.5788 31.3491 14.1071 33.007C14.1071 33.007 14.4688 34.3333 16.0965 34.3333C17.3324 34.3333 18.1764 32.9467 18.6286 31.741C18.086 33.9113 18.1162 35.5692 19.7137 37.0161C21.2812 35.5993 21.3716 33.9113 20.8291 31.741C21.3113 32.9467 22.1252 34.3333 23.3611 34.3333C24.9888 34.3333 25.3506 33.007 25.3506 33.007C22.9391 31.3491 21.8539 29.5405 21.5826 27.5511C21.5223 27.1893 21.5525 26.7975 21.6128 26.5262L24.2955 28.1539L24.7175 27.5209C25.3506 27.9128 26.3151 28.4855 26.6166 28.6664C26.3754 28.8171 26.0137 29.0582 25.9836 29.0884C25.1998 29.6008 24.5065 31.0477 26.1343 32.0726C25.7123 31.0175 26.1343 30.5051 26.8879 29.9324C26.9783 29.8721 27.4304 29.5405 27.762 29.3295C28.3046 29.6611 28.7266 29.9022 28.7869 29.9625C29.5405 30.5051 29.9625 31.0175 29.6008 32.0726C31.1984 30.9874 30.4749 29.5707 29.661 29.0884C29.6008 29.0582 29.3295 28.8774 28.9075 28.6362C29.5405 28.2444 30.2338 27.8525 30.3845 27.7621C31.2285 27.3401 31.8615 27.2195 32.6151 28.0635C32.4041 26.1343 30.8065 26.1042 29.9926 26.5865C29.7515 26.7372 28.6362 27.4003 27.7017 27.9731C27.2496 27.7319 26.074 27.0386 25.3204 26.5865L25.7424 25.9535C25.7424 25.9535 22.6377 23.8434 22.3664 21.9444C22.1554 20.5578 22.9089 19.8947 22.9089 19.8947C23.2104 22.1856 24.8381 24.1147 27.3099 24.9587C28.0032 25.1999 28.7567 25.0793 28.7567 25.0793C26.1946 22.3664 25.8027 19.6535 25.8027 19.6535C25.8027 19.6535 27.0386 22.6377 29.9926 23.8434C33.5194 25.2903 35.1471 23.4516 35.1471 23.4516C29.8721 21.4923 28.8472 18.2368 28.8472 18.2368C28.8472 18.2368 30.3543 20.4372 32.8864 21.0702C36.6543 22.0348 38.1916 19.3219 38.1916 19.3219C32.0122 18.4779 31.3491 15.9157 31.3491 15.9157C31.3491 15.9157 33.5797 17.8148 36.2022 17.4832Z" fill="black"/>
</svg>
