<svg width="157" height="29" viewBox="0 0 157 29" fill="none" xmlns="http://www.w3.org/2000/svg">
<g clip-path="url(#clip0_1_1495)">
<path d="M0.0162354 0H3.04421V13.0744H0.0162354V0Z" fill="black"/>
<path d="M4.9032 0H8.19094L12.6233 6.72865C13.2484 7.6573 13.3864 7.88539 13.9141 8.82219L13.9709 8.8059C13.8978 7.68174 13.8816 7.39663 13.8816 6.2073V0H16.9096V13.0744H13.4757L9.18944 6.59017C8.55625 5.62079 8.42636 5.40899 7.8987 4.48034L7.84187 4.51292C7.91494 5.62079 7.93117 5.89775 7.93117 7.11152V13.0744H4.9032V0Z" fill="black"/>
<path d="M25.6444 0C27.6739 0 29.0864 0.545787 30.0443 1.68624C30.9697 2.81039 31.611 4.76545 31.611 6.54129C31.611 8.49635 31.0022 10.264 29.9063 11.5185C29.0052 12.5368 27.6739 13.0826 26.099 13.0826H19.077V0H25.6444ZM25.3846 10.3537C27.2112 10.3537 28.3395 8.9118 28.3395 6.57388C28.3395 4.35815 27.1219 2.77781 25.4333 2.77781H22.4378C22.2755 2.77781 22.2024 2.76152 22.0482 2.6882C22.0888 2.9 22.105 2.94888 22.105 3.16067V10.3537H25.3846Z" fill="black"/>
<path d="M32.9261 0H43.5038V2.81039H35.946V4.28483C35.946 4.48034 35.9298 4.54551 35.8892 4.74101C36.0515 4.69213 36.0921 4.6677 36.2626 4.6677H42.2698V7.47809H35.946V9.86489C35.946 10.0604 35.9298 10.1256 35.8892 10.3211C36.0515 10.2722 36.0921 10.2478 36.2626 10.2478H43.5443V13.0581H32.9261V0Z" fill="black"/>
<path d="M51.3375 0C53.1478 0 54.1463 0.179213 54.8769 0.619101C55.8916 1.2382 56.6141 2.74522 56.6141 4.26039C56.6141 5.91404 55.9891 7.25 54.9337 7.86096C54.2275 8.26826 53.302 8.43933 51.8083 8.43933H48.4069C48.2365 8.43933 48.1878 8.42303 48.0335 8.36601C48.0741 8.56152 48.0904 8.61039 48.0904 8.82219V13.0744H45.0624V0H51.3375ZM48.4151 2.77781C48.2446 2.77781 48.1959 2.76152 48.0416 2.70449C48.0822 2.9 48.0985 2.94888 48.0985 3.16067V5.14831C48.0985 5.36011 48.0822 5.40899 48.0416 5.6045C48.204 5.55562 48.2446 5.53118 48.4151 5.53118H51.5161C52.9043 5.53118 53.4969 5.12388 53.4969 4.16264C53.4969 3.19326 52.9286 2.77781 51.6298 2.77781H48.4151Z" fill="black"/>
<path d="M58.0348 0H68.6124V2.81039H61.0546V4.28483C61.0546 4.48034 61.0384 4.54551 60.9978 4.74101C61.1602 4.69213 61.2008 4.6677 61.3712 4.6677H67.3785V7.47809H61.0546V9.86489C61.0546 10.0604 61.0384 10.1256 60.9978 10.3211C61.1602 10.2722 61.2008 10.2478 61.3712 10.2478H68.653V13.0581H58.0348V0Z" fill="black"/>
<path d="M73.4669 0L77.8992 6.72865C78.5243 7.6573 78.6623 7.88539 79.19 8.82219L79.2468 8.8059C79.1738 7.68174 79.1575 7.39663 79.1575 6.2073V0H82.1855V13.0744H78.7435L74.4573 6.59017C73.8241 5.62079 73.6942 5.40899 73.1665 4.48034L73.1097 4.51292C73.1828 5.62079 73.199 5.89775 73.199 7.11152V13.0744H70.171V0H73.4669Z" fill="black"/>
<path d="M90.9203 0C92.9498 0 94.3623 0.545787 95.3202 1.68624C96.2457 2.81039 96.887 4.76545 96.887 6.54129C96.887 8.49635 96.2781 10.264 95.1822 11.5185C94.2811 12.5368 92.9498 13.0826 91.3749 13.0826H84.3448V0H90.9203ZM90.6606 10.3537C92.4871 10.3537 93.6155 8.9118 93.6155 6.57388C93.6155 4.35815 92.3978 2.77781 90.7093 2.77781H87.7138C87.5514 2.77781 87.4784 2.76152 87.3241 2.6882C87.3647 2.9 87.3809 2.94888 87.3809 3.16067V10.3537H90.6606Z" fill="black"/>
<path d="M98.194 0H108.78V2.81039H101.222V4.28483C101.222 4.48034 101.206 4.54551 101.165 4.74101C101.327 4.69213 101.368 4.6677 101.539 4.6677H107.546V7.47809H101.222V9.86489C101.222 10.0604 101.206 10.1256 101.165 10.3211C101.327 10.2722 101.368 10.2478 101.539 10.2478H108.82V13.0581H98.194V0Z" fill="black"/>
<path d="M110.338 0H113.626L118.059 6.72865C118.684 7.6573 118.822 7.88539 119.349 8.82219L119.406 8.8059C119.333 7.68174 119.317 7.39663 119.317 6.2073V0H122.345V13.0744H118.911L114.625 6.59017C113.991 5.62079 113.862 5.40899 113.334 4.48034L113.277 4.51292C113.35 5.62079 113.366 5.89775 113.366 7.11152V13.0744H110.338V0Z" fill="black"/>
<path d="M123.627 0H134.846V2.86742H131.08C130.909 2.86742 130.86 2.85112 130.706 2.7941C130.747 2.98961 130.763 3.03848 130.763 3.25028V13.0744H127.735V3.25028C127.735 3.03848 127.751 2.98961 127.792 2.7941C127.629 2.84298 127.589 2.86742 127.418 2.86742H123.627V0Z" fill="black"/>
<path d="M0 15.6406H8.24778C10.537 15.6406 11.7466 16.7322 11.7466 18.7687C11.7466 20.0884 11.3407 20.8215 10.2854 21.4406V21.4895C11.6329 22.2634 12.2418 23.2979 12.2418 24.862C12.2418 26.0432 11.7628 27.151 10.8942 27.8842C10.2123 28.4788 9.52229 28.7069 8.32896 28.7069H0V15.6406ZM3.34457 18.4184C3.1741 18.4184 3.12539 18.4021 2.97115 18.3451C3.01174 18.5406 3.02797 18.5895 3.02797 18.8013V20.0151C3.02797 20.2269 3.01174 20.2757 2.97115 20.4712C3.13351 20.4224 3.19033 20.3979 3.34457 20.3979H7.24116C8.05295 20.3979 8.35331 20.1373 8.35331 19.4693C8.35331 18.785 7.93118 18.4184 7.18433 18.4184H3.34457ZM3.02797 25.5218C3.02797 25.7336 3.01174 25.7825 2.97115 25.978C3.13351 25.9291 3.1741 25.9047 3.34457 25.9047H7.24928C8.32084 25.9047 8.76732 25.4811 8.76732 24.4791C8.76732 23.5097 8.26401 23.0373 7.24928 23.0373H3.02797V25.5218Z" fill="black"/>
<path d="M26.8783 21.9701C26.8783 26.4667 24.4348 28.9838 20.0593 28.9838C18.0217 28.9838 16.4874 28.5113 15.359 27.5094C13.9952 26.2956 13.2565 24.4546 13.2565 22.2389C13.2565 17.9459 15.8785 15.3799 20.2622 15.3799C24.313 15.3799 26.8783 17.9215 26.8783 21.9701ZM16.7147 22.0597C16.7147 24.6827 18.0785 26.4504 20.0999 26.4504C22.1537 26.4504 23.412 24.8538 23.412 22.2144C23.412 19.5262 22.1943 17.9622 20.0836 17.9622C17.9892 17.9622 16.7147 19.5099 16.7147 22.0597Z" fill="black"/>
<path d="M41.7828 21.9701C41.7828 26.4667 39.3393 28.9838 34.9638 28.9838C32.9262 28.9838 31.3919 28.5113 30.2635 27.5094C28.8997 26.2956 28.161 24.4546 28.161 22.2389C28.161 17.9459 30.7831 15.3799 35.1668 15.3799C39.2257 15.3799 41.7828 17.9215 41.7828 21.9701ZM31.6274 22.0597C31.6274 24.6827 32.9912 26.4504 35.0125 26.4504C37.0663 26.4504 38.3246 24.8538 38.3246 22.2144C38.3246 19.5262 37.1069 17.9622 34.9963 17.9622C32.8937 17.9622 31.6274 19.5099 31.6274 22.0597Z" fill="black"/>
<path d="M42.4241 15.6406H53.643V18.508H49.8763C49.7058 18.508 49.6571 18.4917 49.5029 18.4347C49.5435 18.6302 49.5597 18.6791 49.5597 18.8909V28.7151H46.5317V18.8909C46.5317 18.6791 46.548 18.6302 46.5886 18.4347C46.4262 18.4836 46.3856 18.508 46.2151 18.508H42.4241V15.6406Z" fill="black"/>
<path d="M57.1662 23.9903C57.4422 25.6602 58.3676 26.3771 60.2023 26.3771C61.7934 26.3771 62.5727 25.9698 62.5727 25.147C62.5727 24.4465 61.9963 24.0066 60.8192 23.8274L58.4731 23.4608C55.7049 23.0046 54.2762 21.7175 54.2762 19.6484C54.2762 18.3613 55.1123 16.9765 56.2894 16.2922C57.3204 15.6976 58.5868 15.3799 59.9912 15.3799C61.9882 15.3799 63.6929 16.0804 64.7807 17.3105C65.349 17.9622 65.5601 18.4347 65.7955 19.4936L62.5402 20.3408C62.11 18.4265 61.5011 17.897 59.7477 17.897C58.3757 17.897 57.5883 18.4102 57.5883 19.3226C57.5883 20.0394 58.1078 20.3979 59.5528 20.6422L61.6391 20.9925C62.8406 21.2043 63.9852 21.6442 64.6915 22.19C65.4302 22.7521 65.9335 23.8762 65.9335 24.9108C65.9335 26.1083 65.3084 27.3383 64.3992 27.99C63.3682 28.7313 62.2561 28.992 60.1698 28.992C57.8075 28.992 56.8009 28.7639 55.8024 28.0063C54.7714 27.2161 54.2275 26.3526 53.8459 24.8619L57.1662 23.9903Z" fill="black"/>
<path d="M66.5179 15.6406H77.7369V18.508H73.9702C73.7997 18.508 73.751 18.4917 73.5967 18.4347C73.6373 18.6302 73.6536 18.6791 73.6536 18.8909V28.7151H70.6256V18.8909C70.6256 18.6791 70.6418 18.6302 70.6824 18.4347C70.5201 18.4836 70.4795 18.508 70.309 18.508H66.5179V15.6406Z" fill="black"/>
<path d="M78.9628 15.6406H86.7478C88.3795 15.6406 89.3537 16.0072 90.0762 16.9033C90.6444 17.6038 90.9448 18.5732 90.9448 19.6974C90.9448 21.7502 90.1086 22.9639 88.3227 23.5097C88.6149 23.8926 88.688 23.9985 88.9478 24.4384L91.5536 28.7069H87.7463L84.7833 23.803H82.3073C82.1369 23.803 82.0882 23.7867 81.9339 23.7297C81.9745 23.9252 81.9907 23.9741 81.9907 24.1858V28.7069H78.9628V15.6406ZM82.3073 18.4184C82.1612 18.4184 82.0882 18.4021 81.9339 18.3451C81.9745 18.5406 81.9907 18.5895 81.9907 18.8013V20.6505C81.9907 20.846 81.9745 20.9111 81.9339 21.1066C82.0963 21.0578 82.1369 21.0333 82.3073 21.0333H86.0253C86.9508 21.0333 87.2836 20.9844 87.5759 20.7726C87.8925 20.5446 88.071 20.178 88.071 19.7218C88.071 18.7524 87.6976 18.4184 86.6098 18.4184H82.3073Z" fill="black"/>
<path d="M96.7246 15.6406H100.313L105.062 28.7151H101.733L100.865 26.1328H96.0995L95.2309 28.7151H91.9188L96.7246 15.6406ZM99.1113 23.7297C99.6065 23.7297 99.7039 23.7297 100.142 23.7785C99.9393 23.3224 99.8987 23.2002 99.712 22.6544L99.1762 21.0333C98.8434 20.0476 98.7703 19.8033 98.5268 18.8339H98.47C98.2264 19.8033 98.1371 20.0639 97.8205 21.0333L97.2847 22.6544C97.098 23.2165 97.0493 23.3224 96.8545 23.7785C97.2847 23.7297 97.3903 23.7297 97.8855 23.7297H99.1113Z" fill="black"/>
<path d="M106.06 15.6406H112.327C114.137 15.6406 115.136 15.8198 115.875 16.2597C116.889 16.8788 117.612 18.3858 117.612 19.901C117.612 21.5547 116.987 22.8906 115.932 23.5016C115.225 23.9089 114.3 24.08 112.806 24.08H109.405C109.234 24.08 109.186 24.0637 109.031 24.0066C109.072 24.2021 109.088 24.251 109.088 24.4628V28.7151H106.06V15.6406ZM109.397 18.4184C109.226 18.4184 109.177 18.4021 109.023 18.3451C109.064 18.5406 109.08 18.5895 109.08 18.8013V20.7889C109.08 21.0007 109.064 21.0496 109.023 21.2451C109.186 21.1962 109.226 21.1718 109.397 21.1718H112.498C113.886 21.1718 114.478 20.7645 114.478 19.8033C114.478 18.8339 113.91 18.4184 112.611 18.4184H109.397Z" fill="black"/>
<path d="M119.025 15.6406H125.292C127.102 15.6406 128.1 15.8198 128.839 16.2597C129.854 16.8788 130.576 18.3858 130.576 19.901C130.576 21.5547 129.951 22.8906 128.896 23.5016C128.19 23.9089 127.264 24.08 125.771 24.08H122.369C122.199 24.08 122.15 24.0637 121.996 24.0066C122.036 24.2021 122.053 24.251 122.053 24.4628V28.7151H119.025V15.6406ZM122.369 18.4184C122.199 18.4184 122.15 18.4021 121.996 18.3451C122.036 18.5406 122.053 18.5895 122.053 18.8013V20.7889C122.053 21.0007 122.036 21.0496 121.996 21.2451C122.158 21.1962 122.199 21.1718 122.369 21.1718H125.47C126.858 21.1718 127.451 20.7645 127.451 19.8033C127.451 18.8339 126.883 18.4184 125.584 18.4184H122.369Z" fill="black"/>
<path d="M142.566 15.6406V18.451H135.009V19.9255C135.009 20.121 134.992 20.1861 134.952 20.3816C135.114 20.3328 135.155 20.3083 135.325 20.3083H141.333V23.1187H135.009V25.5055C135.009 25.701 134.992 25.7662 134.952 25.9617C135.114 25.9128 135.155 25.8884 135.325 25.8884H142.607V28.6988H131.981V15.6406H142.566Z" fill="black"/>
<path d="M150.985 15.6406C153.014 15.6406 154.427 16.1864 155.385 17.3269C156.31 18.451 156.951 20.4061 156.951 22.1819C156.951 24.137 156.342 25.9047 155.247 27.1592C154.345 28.1774 153.014 28.7232 151.439 28.7232H144.417V15.6406H150.985ZM150.717 25.9943C152.543 25.9943 153.672 24.5524 153.672 22.2145C153.672 19.9988 152.454 18.4184 150.765 18.4184H147.77C147.608 18.4184 147.535 18.4021 147.38 18.3288C147.421 18.5406 147.437 18.5895 147.437 18.8013V25.9943H150.717Z" fill="black"/>
<path d="M145.148 0.260742H142.104V13.2945H145.148V0.260742Z" fill="black"/>
<path d="M150.127 8.30577V5.25098H137.138V8.30577H150.127Z" fill="black"/>
</g>
<defs>
<clipPath id="clip0_1_1495">
<rect width="157" height="29" fill="white"/>
</clipPath>
</defs>
</svg>
